<svg width="25" height="25" viewBox="0 0 25 25" fill="none" xmlns="http://www.w3.org/2000/svg">
<g clip-path="url(#clip0_1_138)">
<path fill-rule="evenodd" clip-rule="evenodd" d="M12.2489 0.5C5.6189 0.5 0.248901 5.87 0.248901 12.5C0.248901 17.81 3.6839 22.295 8.4539 23.885C9.0539 23.99 9.2789 23.63 9.2789 23.315C9.2789 23.03 9.2639 22.085 9.2639 21.08C6.2489 21.635 5.4689 20.345 5.2289 19.67C5.0939 19.325 4.5089 18.26 3.9989 17.975C3.5789 17.75 2.9789 17.195 3.9839 17.18C4.9289 17.165 5.6039 18.05 5.8289 18.41C6.9089 20.225 8.6339 19.715 9.3239 19.4C9.4289 18.62 9.7439 18.095 10.0889 17.795C7.4189 17.495 4.6289 16.46 4.6289 11.87C4.6289 10.565 5.0939 9.485 5.8589 8.645C5.7389 8.345 5.3189 7.115 5.9789 5.465C5.9789 5.465 6.9839 5.15 9.2789 6.695C10.2389 6.425 11.2589 6.29 12.2789 6.29C13.2989 6.29 14.3189 6.425 15.2789 6.695C17.5739 5.135 18.5789 5.465 18.5789 5.465C19.2389 7.115 18.8189 8.345 18.6989 8.645C19.4639 9.485 19.9289 10.55 19.9289 11.87C19.9289 16.475 17.1239 17.495 14.4539 17.795C14.8889 18.17 15.2639 18.89 15.2639 20.015C15.2639 21.62 15.2489 22.91 15.2489 23.315C15.2489 23.63 15.4739 24.005 16.0739 23.885C18.4561 23.0807 20.5261 21.5497 21.9926 19.5074C23.4591 17.465 24.2482 15.0143 24.2489 12.5C24.2489 5.87 18.8789 0.5 12.2489 0.5Z" fill="black"/>
</g>
<defs>
<clipPath id="clip0_1_138">
<rect x="0.248901" y="0.5" width="24" height="24" rx="12" fill="white"/>
</clipPath>
</defs>
</svg>
