<svg width="25" height="25" viewBox="0 0 25 25" fill="none" xmlns="http://www.w3.org/2000/svg">
<g clip-path="url(#clip0_1_145)">
<path d="M24.2489 12.5735C24.2489 5.90454 18.8759 0.498535 12.2488 0.498535C5.61885 0.500035 0.24585 5.90454 0.24585 12.575C0.24585 18.6005 4.63485 23.5955 10.3708 24.5015V16.064H7.32585V12.575H10.3738V9.91253C10.3738 6.88704 12.1663 5.21603 14.9068 5.21603C16.2208 5.21603 17.5933 5.45154 17.5933 5.45154V8.42154H16.0798C14.5903 8.42154 14.1253 9.35303 14.1253 10.3085V12.5735H17.4523L16.9213 16.0625H14.1238V24.5C19.8598 23.594 24.2489 18.599 24.2489 12.5735Z" fill="#02073F"/>
</g>
<defs>
<clipPath id="clip0_1_145">
<rect x="0.248901" y="0.5" width="24" height="24" rx="12" fill="white"/>
</clipPath>
</defs>
</svg>
