<svg width="17" height="17" viewBox="0 0 17 17" fill="none" xmlns="http://www.w3.org/2000/svg">
<path d="M11.4444 9.56673C11.5721 9.22564 11.6368 8.86424 11.6355 8.50006C11.6355 7.69145 11.3143 6.91595 10.7425 6.34417C10.1708 5.77239 9.39527 5.45117 8.58666 5.45117C8.22696 5.45159 7.87024 5.51631 7.53333 5.64228L8.24888 6.38006C8.35765 6.36266 8.46761 6.35374 8.57777 6.35339C9.14952 6.3522 9.69851 6.57728 10.1049 6.97948C10.5112 7.38168 10.742 7.92833 10.7467 8.50006C10.7463 8.61022 10.7374 8.72017 10.72 8.82895L11.4444 9.56673Z" fill="#C7D2D6"/>
<path d="M15.4889 8.29113C13.9911 5.52224 11.3645 3.84668 8.4578 3.84668C7.6664 3.84854 6.88031 3.97605 6.12891 4.22446L6.84446 4.94446C7.37151 4.80825 7.91344 4.73808 8.4578 4.73557C10.96 4.73557 13.2356 6.13112 14.5911 8.48224C14.0939 9.35451 13.4347 10.1238 12.6489 10.7489L13.28 11.38C14.1894 10.6464 14.9446 9.7401 15.5022 8.71335L15.6178 8.50001L15.4889 8.29113Z" fill="#C7D2D6"/>
<path d="M2.41331 3.06884L4.39553 5.05106C3.1426 5.85778 2.1186 6.97362 1.4222 8.29106L1.30664 8.49995L1.4222 8.71328C2.91997 11.4822 5.54664 13.1577 8.45331 13.1577C9.58782 13.1575 10.7076 12.9007 11.7289 12.4066L13.9511 14.6288L14.7289 13.9622L3.17331 2.40662L2.41331 3.06884ZM6.74664 7.40217L9.70219 10.3577C9.36825 10.5644 8.98382 10.6751 8.59108 10.6777C8.30572 10.6777 8.02317 10.6213 7.7597 10.5117C7.49622 10.4021 7.25702 10.2415 7.05586 10.0391C6.85469 9.83667 6.69554 9.59648 6.58756 9.33234C6.47957 9.0682 6.42488 8.78531 6.42664 8.49995C6.43165 8.11175 6.54227 7.73225 6.74664 7.40217ZM6.1022 6.75773C5.68639 7.34413 5.4915 8.05875 5.55202 8.77505C5.61255 9.49136 5.9246 10.1631 6.43291 10.6715C6.94122 11.1798 7.613 11.4918 8.32931 11.5523C9.04562 11.6129 9.76024 11.418 10.3466 11.0022L11.0577 11.7133C10.2345 12.0652 9.34857 12.2466 8.45331 12.2466C5.95108 12.2466 3.67553 10.8511 2.31997 8.49995C2.97051 7.34805 3.90741 6.38359 5.03997 5.69995L6.1022 6.75773Z" fill="#C7D2D6"/>
</svg>
