<svg width="25" height="25" viewBox="0 0 25 25" fill="none" xmlns="http://www.w3.org/2000/svg">
<g clip-path="url(#clip0_1_132)">
<path d="M24.0151 10.1496H23.0485V10.0998H12.2487V14.8998H19.0304C18.041 17.6939 15.3824 19.6997 12.2487 19.6997C8.27256 19.6997 5.04882 16.4759 5.04882 12.4998C5.04882 8.52366 8.27256 5.29992 12.2487 5.29992C14.0841 5.29992 15.7538 5.9923 17.0252 7.12329L20.4194 3.72914C18.2762 1.73178 15.4094 0.5 12.2487 0.5C5.62181 0.5 0.248901 5.87291 0.248901 12.4998C0.248901 19.1267 5.62181 24.4996 12.2487 24.4996C18.8756 24.4996 24.2485 19.1267 24.2485 12.4998C24.2485 11.6952 24.1657 10.9098 24.0151 10.1496Z" fill="#FFC107"/>
<path d="M1.63171 6.91449L5.57425 9.80584C6.64103 7.16468 9.22458 5.29992 12.2479 5.29992C14.0833 5.29992 15.7531 5.9923 17.0244 7.12328L20.4186 3.72914C18.2754 1.73178 15.4087 0.5 12.2479 0.5C7.63881 0.5 3.64168 3.10215 1.63171 6.91449Z" fill="#FF3D00"/>
<path d="M12.2489 24.5001C15.3484 24.5001 18.1648 23.3139 20.2941 21.3849L16.5802 18.2422C15.3349 19.1892 13.8133 19.7014 12.2489 19.7001C9.12771 19.7001 6.47755 17.71 5.47917 14.9326L1.56604 17.9476C3.55201 21.8337 7.58514 24.5001 12.2489 24.5001Z" fill="#4CAF50"/>
<path d="M24.0151 10.1497H23.0485V10.0999H12.2487V14.8998H19.0303C18.5571 16.2296 17.7046 17.3916 16.5782 18.2423L16.58 18.2411L20.2939 21.3839C20.0311 21.6227 24.2485 18.4997 24.2485 12.4998C24.2485 11.6952 24.1657 10.9098 24.0151 10.1497Z" fill="#1976D2"/>
</g>
<defs>
<clipPath id="clip0_1_132">
<rect x="0.248901" y="0.5" width="24" height="24" rx="12" fill="white"/>
</clipPath>
</defs>
</svg>
