<svg width="117" height="116" viewBox="0 0 117 116" fill="none" xmlns="http://www.w3.org/2000/svg">
<rect x="0.768799" y="0.237183" width="116.133" height="115.287" rx="8" fill="#3442D9"/>
<g clip-path="url(#clip0_1_334)">
<path d="M42.8667 26.177C41.6068 26.177 40.5854 27.1909 40.5854 28.4416V32.9707H45.1478V28.4416C45.1478 27.1909 44.1265 26.177 42.8667 26.177Z" fill="white"/>
<path d="M74.8039 26.177C73.544 26.177 72.5227 27.1909 72.5227 28.4416V32.9707H77.085V28.4416C77.0852 27.1909 76.0638 26.177 74.8039 26.177Z" fill="white"/>
<path d="M83.9287 32.9707H77.0851V42.029C77.0851 43.2798 76.0638 44.2937 74.8039 44.2937C73.544 44.2937 72.5226 43.2798 72.5226 42.029V32.9707H45.1484V42.029C45.1484 43.2798 44.1271 44.2937 42.8672 44.2937C41.6072 44.2937 40.5859 43.2798 40.5859 42.029V32.9707H33.7425C29.9629 32.9707 26.8989 36.0124 26.8989 39.7644V82.7914C26.8989 86.5435 29.9629 89.5851 33.7425 89.5851H83.9287C87.7083 89.5851 90.7722 86.5435 90.7722 82.7914V39.7644C90.7722 36.0124 87.7083 32.9707 83.9287 32.9707ZM86.2098 82.7914C86.2098 84.0421 85.1884 85.056 83.9285 85.056H33.7425C32.4826 85.056 31.4613 84.0421 31.4613 82.7914V53.3519H86.2098V82.7914Z" fill="white"/>
<path d="M45.1495 57.8811H40.5871C39.3272 57.8811 38.3059 58.895 38.3059 60.1457C38.3059 61.3965 39.3272 62.4104 40.5871 62.4104H45.1495C46.4094 62.4104 47.4307 61.3965 47.4307 60.1457C47.4307 58.895 46.4094 57.8811 45.1495 57.8811Z" fill="white"/>
<path d="M61.1178 57.8811H56.5554C55.2955 57.8811 54.2742 58.895 54.2742 60.1457C54.2742 61.3965 55.2955 62.4104 56.5554 62.4104H61.1178C62.3777 62.4104 63.399 61.3965 63.399 60.1457C63.399 58.895 62.3777 57.8811 61.1178 57.8811Z" fill="white"/>
<path d="M77.086 57.8811H72.5237C71.2638 57.8811 70.2424 58.895 70.2424 60.1457C70.2424 61.3965 71.2638 62.4104 72.5237 62.4104H77.086C78.3459 62.4104 79.3672 61.3965 79.3672 60.1457C79.3672 58.895 78.3458 57.8811 77.086 57.8811Z" fill="white"/>
<path d="M45.1495 66.9391H40.5871C39.3272 66.9391 38.3059 67.953 38.3059 69.2037C38.3059 70.4544 39.3272 71.4683 40.5871 71.4683H45.1495C46.4094 71.4683 47.4307 70.4544 47.4307 69.2037C47.4307 67.953 46.4094 66.9391 45.1495 66.9391Z" fill="white"/>
<path d="M61.1178 66.9391H56.5554C55.2955 66.9391 54.2742 67.953 54.2742 69.2037C54.2742 70.4544 55.2955 71.4683 56.5554 71.4683H61.1178C62.3777 71.4683 63.399 70.4544 63.399 69.2037C63.399 67.953 62.3777 66.9391 61.1178 66.9391Z" fill="white"/>
<path d="M77.086 66.9391H72.5237C71.2638 66.9391 70.2424 67.953 70.2424 69.2037C70.2424 70.4544 71.2638 71.4683 72.5237 71.4683H77.086C78.3459 71.4683 79.3672 70.4544 79.3672 69.2037C79.3671 67.953 78.3458 66.9391 77.086 66.9391Z" fill="white"/>
<path d="M45.1495 75.9978H40.5871C39.3272 75.9978 38.3059 77.0117 38.3059 78.2624C38.3059 79.5131 39.3272 80.5269 40.5871 80.5269H45.1495C46.4094 80.5269 47.4307 79.513 47.4307 78.2623C47.4307 77.0115 46.4094 75.9978 45.1495 75.9978Z" fill="white"/>
<path d="M61.1178 75.9978H56.5554C55.2955 75.9978 54.2742 77.0117 54.2742 78.2624C54.2742 79.5132 55.2955 80.527 56.5554 80.527H61.1178C62.3777 80.527 63.399 79.5132 63.399 78.2624C63.399 77.0117 62.3777 75.9978 61.1178 75.9978Z" fill="white"/>
<path d="M77.086 75.9978H72.5237C71.2638 75.9978 70.2424 77.0117 70.2424 78.2624C70.2424 79.5132 71.2638 80.527 72.5237 80.527H77.086C78.3459 80.527 79.3672 79.5132 79.3672 78.2624C79.3672 77.0117 78.3458 75.9978 77.086 75.9978Z" fill="white"/>
</g>
<defs>
<clipPath id="clip0_1_334">
<rect width="63.8733" height="63.4081" fill="white" transform="translate(26.8989 26.177)"/>
</clipPath>
</defs>
</svg>
